<svg width="40" height="40" viewBox="0 0 40 40" fill="none" xmlns="http://www.w3.org/2000/svg">
<path fill-rule="evenodd" clip-rule="evenodd" d="M8 14.6905V7.99998H18V5.33331H8V-0.666687H5.33333V5.33331H0V12H2.66667V7.99998H5.33333V16.2357L7.356 17.3951L2.66667 22.0598V40.6666H5.33333V23.1685L9.75488 18.7702L12.6667 20.4392V22.7435L8.63333 26.4102V40H11.3V38.5856L17.8857 32H37.3334V40.6666H40V29.3333H28V26.6666L36 26.6666V24L28 24V21.3333H36V16H40V13.3333H36V7.99998H28V5.33331H36V2.66665H28V-1.83582e-05L25.3333 -1.8239e-05V2.66665H18V5.33331H25.3333V7.99998H18V10.6666H25.3333V13.3333L15.3333 13.3333V16L25.3333 16V18.6667H18V21.3333H25.3333L25.3333 24V26.6666L25.3333 29.3333H21.3333V24H18.6667V29.3333H16.7811L11.3 34.8144V27.5898L15.3333 23.9231V18.8941L11.7152 16.8201L15.3333 13.221V7.99998H12.6667V12.1123L9.31631 15.4451L8 14.6905ZM28 16V18.6667H33.3333V16H28ZM33.3333 13.3333V10.6666H28V13.3333H33.3333Z" fill="white"/>
</svg>
