<?xml version="1.0" encoding="utf-8"?>
<!-- Generator: Adobe Illustrator 18.0.0, SVG Export Plug-In . SVG Version: 6.00 Build 0)  -->
<!DOCTYPE svg PUBLIC "-//W3C//DTD SVG 1.1//EN" "http://www.w3.org/Graphics/SVG/1.1/DTD/svg11.dtd">
<svg version="1.1" id="Layer_1" xmlns="http://www.w3.org/2000/svg" xmlns:xlink="http://www.w3.org/1999/xlink" x="0px" y="0px"
	 viewBox="0 0 34 65.1" enable-background="new 0 0 34 65.1" xml:space="preserve">
<g>
	<g>
		<path fill="#C75727" d="M33.3,65.1c-1.2-5.2-3.5-15-4.7-15.1C27,49.8,5.4,52.3,5.4,52.3s-5,6.7-5,12.7H33.3z"/>
		<path fill="#D67B27" d="M26.3,65.1c-0.3-4.6-1.5-7.8-3.7-10.7c-2.5-3.3-7.6-0.1-10.7,0C9.4,54.4,7,61.6,6,65.1H26.3z"/>
		<path fill="#D65F27" d="M12.5,29.1c0,0-3.9-3.6-5.8-7.3s-5-5.6-4.9-2.6c0.1,3,3.3,15.1,5.8,17.9s5.8,3.8,5.8,3.8L12.5,29.1z"/>
		<path fill="#D65F27" d="M22.4,28.7c0,0,2.5-2,3.4-3.8c0.9-1.7,2.9-7.2,4-8c1.1-0.8,1.8,7.1,1.7,9.6s-0.5,6.7-2.5,8.8
			c-1.9,2.1-4.2,3-4.2,3L22.4,28.7z"/>
		<path fill="#D76627" d="M17.8,55.9c0,0-18.4,0.4-17.8-9c2-5.2,3.2-8.7,3.2-8.7S7,28.4,9.8,25.8c2.1-1.9,7.8-3,10.2-1.9
			s4.6,2.1,6.8,7.4s7.8,10.9,7.2,15.7S25.4,54.9,17.8,55.9z"/>
		<path fill="#C75727" d="M20,23.8c-2.4-1.1-6.2-0.9-10.2,0.8c-1.8,0.8-3.1,4.8-4.4,7.9c2.2,1,6.5,3.6,7.8,9.4
			c2.2,9.7,6.2,5.9,6.9,2.9c0.9-4.4-0.1-12.3,6.7-13.7C24.6,25.9,22.4,24.9,20,23.8z"/>
		<path fill="#291810" d="M14.2,45.1c0,0,3.5-0.6,5.9-0.2s-1.6,4.6-2.9,4.2S12.8,46.4,14.2,45.1z"/>
		
			<ellipse transform="matrix(0.9577 -0.2878 0.2878 0.9577 -10.3709 3.7326)" fill="#2A1A10" cx="7.5" cy="37.1" rx="1.3" ry="1.8"/>
		
			<ellipse transform="matrix(-0.9577 -0.2878 0.2878 -0.9577 38.5808 79.9492)" fill="#2A1A10" cx="25.2" cy="37.1" rx="1.3" ry="1.8"/>
		<path fill="#E28925" d="M17,52.9c-2.9,0-5.6,1.4-7.1,2.3c4.1,0.8,7.9,0.7,7.9,0.7c1.9-0.2,3.8-0.6,5.6-1.1
			C21.8,53.9,19.5,52.9,17,52.9z"/>
	</g>
	<path fill="#E7685B" d="M18.6,0.3c-0.9-0.6-3.1-0.3-3.8,1.2c-0.6,1.4,0,4.2,1.5,5.9s1.7,3.1,1.5,3.9c-0.2,0.7,3-1.1,4.6-2.4
		s4.1-4.3,3.7-6.1c-0.4-1.8-2.8-3-4.1-2.4c-1.2,0.6-1.9,2.4-1.9,2.4S19.8,1.1,18.6,0.3z"/>
</g>
</svg>
